<?xml version="1.0" encoding="UTF-8" standalone="no"?>
<!DOCTYPE svg PUBLIC "-//W3C//DTD SVG 1.1//EN" "http://www.w3.org/Graphics/SVG/1.1/DTD/svg11.dtd">
<svg width="100%" height="100%" viewBox="0 0 175 196" version="1.1" xmlns="http://www.w3.org/2000/svg" xmlns:xlink="http://www.w3.org/1999/xlink" xml:space="preserve" xmlns:serif="http://www.serif.com/" style="fill-rule:evenodd;clip-rule:evenodd;stroke-linejoin:round;stroke-miterlimit:2;">
    <g transform="matrix(1,0,0,1,3529,-3682.04)">
        <g id="api" transform="matrix(0.510226,0,0,0.510226,-3529,3682.04)">
            <path d="M341.333,234.667L341.333,298.667C341.333,345.795 264.923,384 170.667,384C78.505,384 3.405,347.474 0.113,301.795L0,298.667L0,234.667L0.113,237.795C3.405,283.474 78.505,320 170.667,320C264.923,320 341.333,281.795 341.333,234.667ZM0.113,131.128C3.405,176.807 78.505,213.333 170.667,213.333C264.923,213.333 341.333,175.128 341.333,128L341.333,192L341.31,193.411C339.803,239.889 263.981,277.333 170.667,277.333C78.505,277.333 3.405,240.807 0.113,195.128L0,192L0,128L0.113,131.128ZM170.667,0C262.829,0 337.929,36.526 341.221,82.205L341.333,85.333L341.31,86.744C339.803,133.222 263.981,170.667 170.667,170.667C78.505,170.667 3.405,134.141 0.113,88.462L0,85.333C0,38.205 76.41,0 170.667,0Z"/>
        </g>
    </g>
</svg>
