<?xml version="1.0" encoding="UTF-8" standalone="no"?>
<!DOCTYPE svg PUBLIC "-//W3C//DTD SVG 1.1//EN" "http://www.w3.org/Graphics/SVG/1.1/DTD/svg11.dtd">
<svg width="100%" height="100%" viewBox="0 0 175 152" version="1.1" xmlns="http://www.w3.org/2000/svg" xmlns:xlink="http://www.w3.org/1999/xlink" xml:space="preserve" xmlns:serif="http://www.serif.com/" style="fill-rule:evenodd;clip-rule:evenodd;stroke-linejoin:round;stroke-miterlimit:2;">
    <g transform="matrix(1,0,0,1,3286,-3918.89)">
        <g id="blender" transform="matrix(1.51724,0,0,1.51724,-3296.02,3897.39)">
            <path d="M66.486,14.174C62.753,14.321 59.761,17.433 59.761,21.17C59.761,23.407 60.833,25.514 62.643,26.831L70.799,32.956C67.537,33.737 64.425,34.915 61.518,36.424L27.611,36.424C27.574,36.424 27.536,36.424 27.498,36.424C23.109,36.424 19.497,40.035 19.497,44.424C19.497,48.814 23.109,52.425 27.498,52.425C27.536,52.425 27.574,52.425 27.611,52.424L44.83,52.424C44.135,53.634 43.495,54.891 42.924,56.174L9.611,82.799C7.714,84.317 6.607,86.62 6.607,89.05C6.607,93.441 10.22,97.054 14.611,97.054C16.428,97.054 18.192,96.435 19.611,95.299L39.861,79.112C42.894,98.762 59.893,113.831 80.393,113.831C103.036,113.831 121.393,95.474 121.393,72.831C121.393,56.421 111.725,42.257 97.799,35.706L71.049,15.643C69.749,14.632 68.132,14.112 66.486,14.174ZM81.236,46.768C94.681,46.768 105.58,56.892 105.58,69.393C105.58,81.894 94.681,92.049 81.236,92.049C67.792,92.049 56.893,81.894 56.893,69.393C56.893,56.892 67.792,46.768 81.236,46.768ZM81.236,53.612C71.851,53.612 64.236,60.666 64.236,69.393C64.236,78.12 71.851,85.206 81.236,85.206C90.622,85.206 98.236,78.12 98.236,69.393C98.236,60.666 90.622,53.612 81.236,53.612Z" style="fill-rule:nonzero;"/>
        </g>
    </g>
</svg>
