<?xml version="1.0" encoding="UTF-8" standalone="no"?>
<!DOCTYPE svg PUBLIC "-//W3C//DTD SVG 1.1//EN" "http://www.w3.org/Graphics/SVG/1.1/DTD/svg11.dtd">
<svg width="100%" height="100%" viewBox="0 0 140 140" version="1.1" xmlns="http://www.w3.org/2000/svg" xmlns:xlink="http://www.w3.org/1999/xlink" xml:space="preserve" xmlns:serif="http://www.serif.com/" style="fill-rule:evenodd;clip-rule:evenodd;stroke-linejoin:round;stroke-miterlimit:2;">
    <g transform="matrix(1,0,0,1,2123.4,186.797)">
        <g transform="matrix(1.195,0,0,1.195,566.54,9.18211)">
            <rect x="-2251" y="-164" width="116.912" height="116.912" style="fill:rgb(185,150,109);"/>
        </g>
        <g transform="matrix(0.539008,0,0,0.539008,-637.905,-78.6734)">
            <path d="M-2650.5,-144.506C-2623.14,-144.506 -2601.01,-132.185 -2586.81,-113.391L-2616.46,-98.356C-2623.56,-107.335 -2634.63,-112.347 -2650.92,-112.347C-2675.77,-112.347 -2693.1,-95.015 -2693.1,-71.418C-2693.1,-48.865 -2675.35,-29.444 -2650.5,-29.444C-2635.26,-29.444 -2623.14,-34.247 -2615.63,-41.347L-2615.63,-55.129L-2658.85,-55.129L-2658.85,-81.441L-2585.35,-81.441L-2585.35,-28.818C-2586.39,-26.729 -2608.74,2.506 -2650.29,2.506C-2697.28,2.506 -2727.56,-32.785 -2727.56,-71C-2727.56,-110.468 -2695.19,-144.506 -2650.5,-144.506ZM-2525.21,-142L-2525.21,0L-2559.45,0L-2559.45,-142L-2525.21,-142Z" style="fill:rgb(22,21,26);"/>
        </g>
    </g>
</svg>
