<?xml version="1.0" encoding="UTF-8" standalone="no"?>
<!DOCTYPE svg PUBLIC "-//W3C//DTD SVG 1.1//EN" "http://www.w3.org/Graphics/SVG/1.1/DTD/svg11.dtd">
<svg width="100%" height="100%" viewBox="0 0 255 170" version="1.1" xmlns="http://www.w3.org/2000/svg" xmlns:xlink="http://www.w3.org/1999/xlink" xml:space="preserve" xmlns:serif="http://www.serif.com/" style="fill-rule:evenodd;clip-rule:evenodd;">
    <g transform="matrix(1,0,0,1,-2715,277)">
        <g id="Flag_of_the_United_Kingdom.svg" transform="matrix(0.2125,0,0,0.283333,2842.5,-192)">
            <g transform="matrix(1,0,0,1,-600,-300)">
                <g>
                    <clipPath id="_clip1">
                        <rect x="0" y="0" width="1200" height="600"/>
                    </clipPath>
                    <g clip-path="url(#_clip1)">
                        <rect x="0" y="0" width="1200" height="600" style="fill:rgb(1,33,105);fill-rule:nonzero;"/>
                        <path d="M0,0L1200,600M1200,0L0,600" style="fill-rule:nonzero;stroke:white;stroke-width:120px;"/>
                        <clipPath id="_clip2">
                            <path d="M600,300L1200,300L1200,600L600,300ZM600,300L600,600L0,600L600,300ZM600,300L0,300L0,0L600,300ZM600,300L600,0L1200,0L600,300Z"/>
                        </clipPath>
                        <g clip-path="url(#_clip2)">
                            <path d="M0,0L1200,600M1200,0L0,600" style="fill-rule:nonzero;stroke:rgb(200,16,46);stroke-width:80px;"/>
                        </g>
                        <path d="M600,0L600,600M0,300L1200,300" style="fill-rule:nonzero;stroke:white;stroke-width:200px;"/>
                        <path d="M600,0L600,600M0,300L1200,300" style="fill-rule:nonzero;stroke:rgb(200,16,46);stroke-width:120px;"/>
                    </g>
                </g>
            </g>
        </g>
    </g>
</svg>
