<?xml version="1.0" encoding="UTF-8" standalone="no"?>
<!DOCTYPE svg PUBLIC "-//W3C//DTD SVG 1.1//EN" "http://www.w3.org/Graphics/SVG/1.1/DTD/svg11.dtd">
<svg width="100%" height="100%" viewBox="0 0 88 75" version="1.1" xmlns="http://www.w3.org/2000/svg" xmlns:xlink="http://www.w3.org/1999/xlink" xml:space="preserve" xmlns:serif="http://www.serif.com/" style="fill-rule:evenodd;clip-rule:evenodd;stroke-linejoin:round;stroke-miterlimit:2;">
    <g transform="matrix(1,0,0,1,829.46,-514.272)">
        <g id="github" transform="matrix(4.76716,0,0,4.76716,-833.274,503.784)">
            <path d="M13.18,11.309C12.462,11.309 11.88,12.116 11.88,13.108C11.88,14.102 12.462,14.909 13.18,14.909C13.898,14.909 14.48,14.102 14.48,13.108C14.479,12.116 13.898,11.309 13.18,11.309ZM17.706,6.626C17.855,6.261 17.861,4.187 17.071,2.2C17.071,2.2 15.26,2.399 12.52,4.28C11.945,4.12 10.972,4.042 10.001,4.042C9.028,4.042 8.056,4.12 7.481,4.28C4.74,2.399 2.929,2.2 2.929,2.2C2.14,4.187 2.148,6.261 2.295,6.626C1.367,7.634 0.8,8.845 0.8,10.497C0.8,17.683 6.763,17.798 8.267,17.798L10.001,17.8L11.733,17.798C13.239,17.798 19.2,17.683 19.2,10.497C19.2,8.845 18.634,7.634 17.706,6.626ZM10.028,16.915L9.972,16.915C6.201,16.915 3.263,16.466 3.263,12.8C3.263,11.921 3.573,11.107 4.31,10.431C5.537,9.304 7.615,9.9 9.972,9.9L10.028,9.9C12.385,9.9 14.464,9.304 15.692,10.431C16.427,11.107 16.737,11.921 16.737,12.8C16.737,16.466 13.8,16.915 10.028,16.915ZM6.821,11.309C6.103,11.309 5.521,12.116 5.521,13.108C5.521,14.102 6.103,14.909 6.821,14.909C7.54,14.909 8.122,14.102 8.122,13.108C8.122,12.116 7.54,11.309 6.821,11.309Z" style="fill-rule:nonzero;"/>
        </g>
    </g>
</svg>
