<?xml version="1.0" encoding="UTF-8" standalone="no"?>
<!DOCTYPE svg PUBLIC "-//W3C//DTD SVG 1.1//EN" "http://www.w3.org/Graphics/SVG/1.1/DTD/svg11.dtd">
<svg width="100%" height="100%" viewBox="0 0 175 94" version="1.1" xmlns="http://www.w3.org/2000/svg" xmlns:xlink="http://www.w3.org/1999/xlink" xml:space="preserve" xmlns:serif="http://www.serif.com/" style="fill-rule:evenodd;clip-rule:evenodd;stroke-linejoin:round;stroke-miterlimit:2;">
    <g transform="matrix(1,0,0,1,3529,-3547.82)">
        <g id="go" transform="matrix(7.1774,0,0,7.1774,-3584.52,3476.04)">
            <path d="M18.118,14.044C17.741,14.15 17.359,14.257 16.916,14.377C16.7,14.438 16.651,14.452 16.45,14.207C16.209,13.919 16.032,13.733 15.694,13.564C14.681,13.038 13.7,13.191 12.783,13.818C11.689,14.563 11.126,15.664 11.143,17.037C11.159,18.392 12.043,19.51 13.314,19.697C14.407,19.849 15.324,19.443 16.048,18.578C16.192,18.392 16.321,18.189 16.482,17.952L13.378,17.952C13.04,17.952 12.96,17.731 13.072,17.443C13.282,16.918 13.668,16.037 13.893,15.597C13.941,15.495 14.054,15.326 14.295,15.326L19.47,15.326C19.703,14.55 20.08,13.816 20.583,13.123C21.757,11.496 23.173,10.649 25.086,10.293C26.727,9.988 28.271,10.158 29.67,11.157C30.941,12.072 31.729,13.309 31.938,14.935C32.211,17.223 31.584,19.086 30.088,20.679C29.027,21.814 27.724,22.525 26.228,22.847C25.943,22.903 25.658,22.929 25.377,22.955C25.23,22.969 25.085,22.982 24.942,23C23.478,22.966 22.143,22.525 21.017,21.509C20.226,20.788 19.68,19.902 19.409,18.871C19.221,19.271 18.996,19.654 18.734,20.019C17.576,21.628 16.064,22.628 14.15,22.899C12.574,23.119 11.11,22.797 9.824,21.781C8.634,20.832 7.958,19.578 7.781,18.019C7.572,16.173 8.087,14.512 9.148,13.055C10.29,11.48 11.802,10.48 13.651,10.124C15.163,9.836 16.611,10.023 17.913,10.955C18.766,11.548 19.377,12.361 19.779,13.343C19.876,13.496 19.811,13.581 19.618,13.631C19.055,13.782 18.59,13.912 18.118,14.044ZM28.758,15.974C28.761,16.031 28.765,16.091 28.769,16.155C28.689,17.612 27.997,18.697 26.727,19.391C25.874,19.849 24.99,19.899 24.105,19.493C22.947,18.951 22.336,17.612 22.626,16.291C22.98,14.698 23.944,13.699 25.44,13.343C26.968,12.97 28.432,13.919 28.721,15.596C28.744,15.716 28.751,15.836 28.758,15.974Z"/>
        </g>
    </g>
</svg>
