<?xml version="1.0" encoding="UTF-8" standalone="no"?><!DOCTYPE svg PUBLIC "-//W3C//DTD SVG 1.1//EN" "http://www.w3.org/Graphics/SVG/1.1/DTD/svg11.dtd"><svg width="100%" height="100%" viewBox="0 0 26 24" version="1.1" xmlns="http://www.w3.org/2000/svg" xmlns:xlink="http://www.w3.org/1999/xlink" xml:space="preserve" xmlns:serif="http://www.serif.com/" style="fill-rule:evenodd;clip-rule:evenodd;stroke-linejoin:round;stroke-miterlimit:2;"><path id="language" d="M25.019,0.176l-0,13.647l-11.239,0l-0,5.62l-5.379,-0l-5.058,4.094l0,-4.094l-3.211,-0l0,-13.648l12.845,0l-0,-1.605l-3.211,-0l-0,-4.014l15.253,-0Zm-4.014,9.633c-0.482,0 -0.964,-0.08 -1.526,-0.24c1.205,-1.205 1.847,-2.891 1.767,-4.576l-0.081,-0.803l-2.649,-0l0,-1.606l-1.605,0l-0,1.606l-2.409,-0l0,1.605l4.817,0c-0.08,1.205 -0.642,2.248 -1.525,2.971c-0.562,-0.482 -1.044,-1.044 -1.285,-1.766l-1.686,-0c0.241,0.963 0.723,1.846 1.445,2.569c-0.562,0.16 -1.124,0.24 -1.686,0.24l0.081,1.606c1.124,-0.08 2.248,-0.321 3.211,-0.803c0.963,0.482 2.087,0.803 3.131,0.803l-0,-1.606Zm-12.203,6.342l1.927,0l-2.649,-7.144l-1.927,-0l-2.649,7.144l1.927,0l0.481,-1.284l2.489,-0l0.401,1.284Zm-1.685,-5.137l0.802,2.488l-1.605,0l0.803,-2.488Z"/></svg>