<?xml version="1.0" encoding="UTF-8" standalone="no"?><!DOCTYPE svg PUBLIC "-//W3C//DTD SVG 1.1//EN" "http://www.w3.org/Graphics/SVG/1.1/DTD/svg11.dtd"><svg width="100%" height="100%" viewBox="0 0 22 21" version="1.1" xmlns="http://www.w3.org/2000/svg" xmlns:xlink="http://www.w3.org/1999/xlink" xml:space="preserve" xmlns:serif="http://www.serif.com/" style="fill-rule:evenodd;clip-rule:evenodd;stroke-linejoin:round;stroke-miterlimit:2;"><path id="phone" d="M4.145,0.045l1.234,1.226l2.683,2.717l0.761,0.771l-0.319,0.984l-0.995,2.999c0.84,0.952 1.676,1.798 2.51,2.537c0.833,0.739 1.664,1.371 2.491,1.896l2.998,-1.008l1.031,-0.34l0.731,0.731l2.689,2.724l1.222,1.162l-1.227,1.219c-1.371,1.378 -2.972,2.25 -4.629,2.605c-1.68,0.36 -3.415,0.188 -5.012,-0.52c-1.822,-0.811 -4.06,-2.532 -5.473,-3.948c-1.434,-1.406 -3.177,-3.064 -4.008,-4.881c-0.691,-1.584 -0.863,-3.299 -0.557,-4.924c0.305,-1.625 1.088,-3.16 2.305,-4.385l1.565,-1.565Z"/></svg>