<?xml version="1.0" encoding="UTF-8" standalone="no"?>
<!DOCTYPE svg PUBLIC "-//W3C//DTD SVG 1.1//EN" "http://www.w3.org/Graphics/SVG/1.1/DTD/svg11.dtd">
<svg width="100%" height="100%" viewBox="0 0 175 181" version="1.1" xmlns="http://www.w3.org/2000/svg" xmlns:xlink="http://www.w3.org/1999/xlink" xml:space="preserve" xmlns:serif="http://www.serif.com/" style="fill-rule:evenodd;clip-rule:evenodd;stroke-linejoin:round;stroke-miterlimit:2;">
    <g transform="matrix(1,0,0,1,3529,-3918.89)">
        <g id="postgres" transform="matrix(0.44168,0,0,0.44168,-1572.78,2896.84)">
            <path d="M-4127.88,2314.02C-4127.24,2314.01 -4126.5,2313.99 -4125.75,2313.99C-4091.1,2313.99 -4060.24,2330.15 -4040.28,2355.34L-4040.11,2355.58C-4039.7,2356.1 -4039.29,2356.7 -4038.94,2357.32L-4038.9,2357.4C-4025.73,2382.08 -4043.92,2471.66 -4093.28,2549.32L-4093.26,2549.29L-4094.82,2547.34L-4095.46,2546.54C-4088.8,2534.21 -4084.9,2519.54 -4084.9,2503.98C-4084.9,2496.97 -4085.69,2490.16 -4087.19,2483.61C-4088.18,2477.08 -4088.76,2469.58 -4088.76,2461.96L-4088.76,2461.66C-4088.42,2454.36 -4087.65,2447.53 -4086.46,2440.84L-4086.6,2441.8C-4085.31,2435.04 -4084.56,2427.26 -4084.56,2419.31C-4084.56,2418.6 -4084.56,2417.91 -4084.57,2417.22C-4084.4,2416.5 -4084.3,2415.7 -4084.3,2414.86C-4084.3,2414.47 -4084.33,2414.09 -4084.36,2413.71L-4084.36,2413.76C-4090.18,2390.76 -4101.11,2370.83 -4115.9,2354.46C-4129.17,2338.93 -4145.46,2326.41 -4163.93,2317.76L-4164.8,2317.4C-4154.66,2315.23 -4143,2313.99 -4131.06,2313.99C-4130,2313.99 -4128.94,2314.01 -4127.88,2314.02L-4127.94,2314.02L-4127.78,2314.02L-4127.88,2314.02ZM-4107.79,2590.39L-4108.03,2590.28L-4107.79,2590.38L-4107.79,2590.39ZM-4107.79,2590.38C-4108.52,2575.26 -4102.89,2573.67 -4096.92,2571.99C-4096.09,2571.77 -4095.27,2571.52 -4094.45,2571.25C-4093.73,2571.89 -4092.93,2572.52 -4092.1,2573.07L-4092.02,2573.12C-4082.99,2577.09 -4072.47,2579.39 -4061.39,2579.39C-4052.99,2579.39 -4044.9,2578.07 -4037.32,2575.6C-4042.33,2579.85 -4048.02,2583.5 -4054.18,2586.32L-4054.63,2586.51C-4064.02,2590.35 -4074.9,2592.76 -4086.3,2593.12L-4086.44,2593.12C-4088.18,2593.38 -4090.17,2593.54 -4092.2,2593.54C-4097.72,2593.54 -4102.99,2592.42 -4107.78,2590.39L-4107.77,2590.38L-4107.79,2590.38ZM-4107.78,2590.39L-4107.79,2590.39L-4107.79,2590.39L-4107.78,2590.39ZM-4218.56,2649.27C-4218.48,2647.44 -4218.44,2645.31 -4218.44,2643.17C-4218.44,2628.56 -4220.58,2614.44 -4224.58,2601.13C-4224.51,2595.83 -4224.39,2590.46 -4224.23,2585.02L-4224.23,2584.84C-4224.23,2584.17 -4224.34,2583.53 -4224.53,2582.92L-4224.51,2582.96C-4224.72,2581.51 -4224.99,2580.22 -4225.36,2578.99L-4225.31,2579.18C-4227.37,2571.59 -4232.54,2565.47 -4239.36,2562.22L-4239.52,2562.14C-4242.08,2560.86 -4245.11,2560.1 -4248.34,2560.1C-4249.8,2560.1 -4251.23,2560.25 -4252.6,2560.55C-4250.74,2553.71 -4248.82,2548.11 -4246.6,2542.66L-4246.98,2543.73L-4246.02,2541.15C-4244.94,2538.23 -4243.59,2535.22 -4242.14,2532.03C-4234.19,2515.65 -4229.54,2496.4 -4229.54,2476.06C-4229.54,2462.63 -4231.56,2449.68 -4235.32,2437.49C-4238.1,2421.47 -4251.91,2409.44 -4268.52,2409.44C-4271.09,2409.44 -4273.61,2409.74 -4276.02,2410.29C-4287.58,2411.81 -4298.03,2415.21 -4307.55,2420.21L-4307.04,2419.96C-4308.24,2420.58 -4309.43,2421.21 -4310.61,2421.86C-4309.29,2390.66 -4297.62,2362.42 -4278.98,2340.23C-4277.27,2338.5 -4275.47,2336.86 -4273.61,2335.32L-4273.48,2335.22C-4272.48,2335.02 -4271.59,2334.61 -4270.83,2334.04L-4270.85,2334.05C-4257.84,2324.53 -4241.5,2318.8 -4223.83,2318.8C-4222.41,2318.8 -4221.02,2318.83 -4219.63,2318.9L-4219.82,2318.89C-4212.16,2319 -4204.75,2319.53 -4197.47,2320.46L-4198.44,2320.36C-4168.68,2326.09 -4143.27,2341.68 -4125.13,2363.53L-4124.97,2363.74C-4114.07,2376.4 -4105.24,2391.23 -4099.23,2407.42L-4098.91,2408.42C-4102.66,2407.42 -4106.96,2406.84 -4111.39,2406.84C-4125.71,2406.84 -4138.6,2412.9 -4147.67,2422.59L-4147.7,2422.62C-4165.76,2448.45 -4137.8,2498.6 -4124.37,2522.7C-4121.91,2527.12 -4119.78,2530.93 -4119.11,2532.55C-4115.32,2541.31 -4110.56,2548.84 -4104.83,2555.53L-4104.93,2555.41C-4103.66,2557 -4102.44,2558.53 -4101.49,2559.87C-4108.79,2561.97 -4121.91,2566.84 -4120.71,2591.14C-4120.93,2593.98 -4133.07,2668.77 -4133.46,2675.55L-4133.48,2675.78C-4134.23,2700.32 -4153.22,2720.18 -4177.3,2722.32L-4177.49,2722.33C-4205.09,2728.25 -4209.98,2713.28 -4214.3,2700.08C-4214.73,2698.7 -4215.2,2697.33 -4215.7,2695.96C-4218.03,2686.46 -4219.37,2675.55 -4219.37,2664.33C-4219.37,2659.24 -4219.1,2654.22 -4218.56,2649.27L-4218.57,2649.43L-4218.51,2648.81L-4218.56,2649.27ZM-4296.31,2609.26C-4299.26,2608.5 -4301.85,2607.4 -4304.21,2605.97L-4304.08,2606.04C-4301.58,2604.98 -4298.62,2604.09 -4295.56,2603.52L-4295.28,2603.48C-4271.91,2598.67 -4268.31,2595.28 -4260.43,2585.27C-4258.62,2582.98 -4256.58,2580.37 -4253.74,2577.21C-4253.16,2576.55 -4252.69,2575.77 -4252.41,2574.89L-4252.4,2574.85C-4249.3,2572.1 -4247.45,2572.85 -4244.44,2574.09C-4241.14,2575.91 -4238.69,2578.99 -4237.74,2582.64L-4237.73,2582.75C-4237.39,2583.69 -4237.19,2584.77 -4237.19,2585.91C-4237.19,2587.72 -4237.69,2589.42 -4238.56,2590.85C-4247.96,2603.69 -4262.97,2611.95 -4279.91,2611.95C-4285.64,2611.95 -4291.15,2611 -4296.31,2609.26L-4296.21,2609.28L-4296.21,2609.26L-4296.58,2609.16L-4296.31,2609.26ZM-4312.3,2497.14C-4310.91,2486.7 -4310.1,2474.66 -4310.1,2462.42C-4310.1,2455.18 -4310.39,2448.01 -4310.93,2440.91C-4311,2439.66 -4311.07,2438.54 -4311.11,2437.64C-4299.38,2428.74 -4284.53,2423.36 -4268.43,2423.36C-4266.5,2423.36 -4264.61,2423.43 -4262.73,2423.58L-4262.98,2423.56C-4254.91,2425.44 -4248.83,2432.13 -4247.87,2440.36L-4247.85,2440.45C-4244.39,2451.06 -4242.39,2463.27 -4242.39,2475.93C-4242.39,2494.38 -4246.63,2511.83 -4254.18,2527.39L-4253.87,2526.69C-4255.4,2530.09 -4256.84,2533.29 -4258.08,2536.63L-4258.08,2536.66L-4259.04,2539.22C-4261.04,2544 -4263.11,2550.08 -4264.83,2556.3L-4265.11,2557.48C-4278.12,2557.29 -4289.8,2551.72 -4298.05,2542.89L-4298.08,2542.87C-4307.29,2533.15 -4312.94,2519.99 -4312.94,2505.51C-4312.94,2502.66 -4312.73,2499.88 -4312.3,2497.14L-4312.33,2497.33L-4312.28,2497.03L-4312.3,2497.14ZM-4264.8,2430.32C-4265.94,2430.08 -4267.12,2429.94 -4268.33,2429.94C-4271.15,2429.94 -4273.8,2430.66 -4276.02,2431.88L-4276.03,2431.9C-4276.91,2432.51 -4277.53,2433.47 -4277.71,2434.59L-4277.71,2434.61C-4277.71,2436.57 -4276.98,2438.39 -4275.79,2439.76L-4275.76,2439.81C-4273.61,2442.74 -4270.38,2444.84 -4266.58,2445.52L-4266.64,2445.52C-4266.13,2445.58 -4265.64,2445.62 -4265.12,2445.62L-4264.96,2445.62C-4259.89,2445.62 -4255.56,2442.46 -4253.8,2437.93L-4253.77,2437.93C-4253.2,2433.86 -4259.08,2431.14 -4264.8,2430.32ZM-4324.07,2436.09C-4324.06,2437.58 -4323.95,2439.65 -4323.78,2442.45C-4323.3,2448.42 -4323.02,2455.38 -4323.02,2462.42C-4323.02,2474.11 -4323.78,2485.62 -4325.27,2496.91L-4325.12,2495.58C-4325.6,2498.59 -4325.86,2502.05 -4325.86,2505.58C-4325.86,2523.52 -4318.84,2539.82 -4307.38,2551.87L-4307.4,2551.84C-4305.94,2553.38 -4304.41,2554.82 -4302.81,2556.17C-4309.12,2562.93 -4322.85,2577.88 -4337.45,2595.45C-4347.78,2607.88 -4354.92,2605.49 -4357.27,2604.72C-4367.24,2599.36 -4375.07,2591.04 -4379.67,2580.95L-4379.81,2580.63C-4389.77,2562.39 -4398.54,2541.18 -4405.01,2518.97L-4405.58,2516.68L-4405.6,2516.65C-4415.08,2487.73 -4422.8,2453.42 -4427.36,2418.1L-4427.67,2415.2C-4428.56,2410.51 -4429.05,2405.1 -4429.05,2399.59C-4429.05,2373.28 -4417.56,2349.66 -4399.32,2333.49L-4399.23,2333.41C-4365.79,2309.77 -4311.11,2323.56 -4288.01,2331.04L-4288.19,2331.21C-4310.55,2358.49 -4324.12,2393.75 -4324.12,2432.16C-4324.12,2433.47 -4324.1,2434.78 -4324.07,2436.09ZM-4097.43,2421.6C-4097.66,2428.22 -4098.36,2434.51 -4099.47,2440.64L-4099.35,2439.84C-4100.49,2446.03 -4101.3,2453.4 -4101.64,2460.89L-4101.65,2461.26L-4101.65,2462.07C-4101.65,2470.33 -4101.04,2478.45 -4099.85,2486.38L-4099.96,2485.49C-4098.72,2490.98 -4098.01,2497.28 -4098.01,2503.76C-4098.01,2514.88 -4100.11,2525.51 -4103.94,2535.26L-4103.74,2534.68C-4104.84,2532.77 -4105.99,2530.47 -4107,2528.08L-4107.16,2527.65C-4108.12,2525.34 -4110.21,2521.59 -4113.08,2516.43C-4124.28,2496.33 -4150.54,2449.25 -4137.1,2430.05C-4130.2,2420.17 -4112.68,2419.74 -4097.44,2421.61L-4097.43,2421.6ZM-4109.4,2430.44C-4109.84,2427.23 -4115.57,2426.32 -4120.97,2427.07C-4126.38,2427.83 -4131.62,2430.26 -4131.19,2433.49L-4131.16,2433.56C-4129.5,2437.51 -4125.59,2440.26 -4121.05,2440.26L-4120.99,2440.26C-4120.51,2440.26 -4120.03,2440.22 -4119.62,2440.16L-4119.55,2440.14C-4116.66,2439.63 -4114.11,2438.18 -4112.2,2436.09L-4112.19,2436.08C-4110.6,2434.69 -4109.55,2432.7 -4109.4,2430.44Z"/>
        </g>
    </g>
</svg>
