<?xml version="1.0" encoding="UTF-8" standalone="no"?><!DOCTYPE svg PUBLIC "-//W3C//DTD SVG 1.1//EN" "http://www.w3.org/Graphics/SVG/1.1/DTD/svg11.dtd"><svg width="100%" height="100%" viewBox="0 0 18 26" version="1.1" xmlns="http://www.w3.org/2000/svg" xmlns:xlink="http://www.w3.org/1999/xlink" xml:space="preserve" xmlns:serif="http://www.serif.com/" style="fill-rule:evenodd;clip-rule:evenodd;stroke-linejoin:round;stroke-miterlimit:2;"><path id="skills_outline" d="M8.56,25.345c-2.303,0 -4.187,-1.884 -4.187,-4.186l-0,-2.722c-0,-1.465 -0.628,-2.826 -1.57,-3.768c-1.675,-1.57 -2.617,-3.768 -2.617,-6.07c0,-2.303 0.942,-4.396 2.512,-5.966c1.675,-1.57 3.768,-2.408 6.071,-2.408c4.396,0.105 8.059,3.768 8.164,8.06c0.104,2.407 -0.837,4.605 -2.512,6.175c-1.047,1.047 -1.675,2.407 -1.675,3.873l0,2.826c0,2.302 -1.884,4.186 -4.186,4.186Zm-2.094,-5.233l0,1.047c0,1.151 0.942,2.093 2.094,2.093c1.151,-0 2.093,-0.942 2.093,-2.093l-0,-1.047l-4.187,-0Zm0,-2.093l4.187,-0c0.105,-1.884 0.942,-3.559 2.303,-4.92c1.256,-1.256 1.884,-2.93 1.884,-4.71c-0.105,-3.244 -2.826,-5.966 -6.176,-6.07c-1.674,-0 -3.349,0.628 -4.5,1.779c-1.256,1.151 -1.884,2.826 -1.884,4.501c-0,1.779 0.732,3.349 1.884,4.5c1.36,1.361 2.198,3.036 2.302,4.92Z" style="fill-rule:nonzero;"/></svg>