<?xml version="1.0" encoding="UTF-8" standalone="no"?>
<!DOCTYPE svg PUBLIC "-//W3C//DTD SVG 1.1//EN" "http://www.w3.org/Graphics/SVG/1.1/DTD/svg11.dtd">
<svg width="100%" height="100%" viewBox="0 0 175 115" version="1.1" xmlns="http://www.w3.org/2000/svg" xmlns:xlink="http://www.w3.org/1999/xlink" xml:space="preserve" xmlns:serif="http://www.serif.com/" style="fill-rule:evenodd;clip-rule:evenodd;stroke-linejoin:round;stroke-miterlimit:2;">
    <g transform="matrix(1,0,0,1,3816,-4047.41)">
        <g id="ts" transform="matrix(6.96403,0,0,6.96403,-3836.16,3991.31)">
            <path d="M23.814,8.2C24.667,8.398 25.443,8.845 26.043,9.484C26.374,9.83 26.662,10.214 26.9,10.63C26.911,10.675 25.362,11.716 24.422,12.296C24.388,12.319 24.252,12.172 24.099,11.945C23.751,11.344 23.118,10.963 22.424,10.938C21.344,10.864 20.648,11.43 20.653,12.374C20.644,12.606 20.697,12.837 20.806,13.042C21.043,13.534 21.485,13.828 22.87,14.428C25.421,15.528 26.515,16.25 27.191,17.279C27.964,18.594 28.116,20.185 27.608,21.623C26.906,23.209 25.393,24.292 23.666,24.446C22.763,24.55 21.851,24.54 20.951,24.418C19.572,24.192 18.301,23.529 17.325,22.529C16.956,22.114 16.644,21.651 16.397,21.154C16.501,21.077 16.611,21.007 16.725,20.946C16.883,20.855 17.483,20.511 18.049,20.183L19.073,19.589L19.288,19.901C19.649,20.419 20.109,20.861 20.642,21.201C21.736,21.801 23.081,21.733 24.109,21.026C24.644,20.504 24.729,19.665 24.309,19.047C24.032,18.647 23.466,18.318 21.859,17.621C20.599,17.196 19.451,16.492 18.501,15.561C18.049,15.046 17.714,14.437 17.522,13.779C17.38,13.029 17.359,12.261 17.46,11.505C17.845,9.726 19.31,8.37 21.114,8.122C22.013,8.012 22.923,8.039 23.814,8.2ZM15.448,9.688L15.459,11.146L10.817,11.146L10.817,24.327L7.54,24.327L7.54,11.148L2.9,11.148L2.9,9.717C2.888,9.226 2.901,8.735 2.94,8.246C2.957,8.223 5.779,8.212 9.202,8.218L15.429,8.235L15.448,9.688Z" style="fill-rule:nonzero;"/>
        </g>
    </g>
</svg>
