<?xml version="1.0" encoding="UTF-8" standalone="no"?><!DOCTYPE svg PUBLIC "-//W3C//DTD SVG 1.1//EN" "http://www.w3.org/Graphics/SVG/1.1/DTD/svg11.dtd"><svg width="100%" height="100%" viewBox="0 0 22 18" version="1.1" xmlns="http://www.w3.org/2000/svg" xmlns:xlink="http://www.w3.org/1999/xlink" xml:space="preserve" xmlns:serif="http://www.serif.com/" style="fill-rule:evenodd;clip-rule:evenodd;stroke-linejoin:round;stroke-miterlimit:2;"><path id="work_outline" d="M13.624,0.205l1.046,1.047l0,2.093l6.28,0l0,14.653l-20.933,0l-0,-14.653l6.28,0l-0,-2.093l1.047,-1.047l6.28,0Zm-11.514,10.84l0,4.86l16.747,0l-0,-4.86c-2.091,0.598 -4.185,0.972 -6.28,1.122l-0,1.645l-4.187,-0l0,-1.645c-2.095,-0.15 -4.188,-0.524 -6.28,-1.122Zm16.747,-5.607l-16.747,0l0,3.423c2.795,0.859 5.586,1.287 8.374,1.287c2.788,0 5.578,-0.428 8.373,-1.287l-0,-3.423Zm-6.28,-3.14l-4.187,0l0,1.047l4.187,0l-0,-1.047Z"/></svg>