<?xml version="1.0" encoding="UTF-8" standalone="no"?><!DOCTYPE svg PUBLIC "-//W3C//DTD SVG 1.1//EN" "http://www.w3.org/Graphics/SVG/1.1/DTD/svg11.dtd"><svg width="100%" height="100%" viewBox="0 0 22 18" version="1.1" xmlns="http://www.w3.org/2000/svg" xmlns:xlink="http://www.w3.org/1999/xlink" xml:space="preserve" xmlns:serif="http://www.serif.com/" style="fill-rule:evenodd;clip-rule:evenodd;stroke-linejoin:round;stroke-miterlimit:2;"><path id="work" d="M0.13,9.802c2.693,1.047 5.535,1.662 8.42,1.821l0,2.105l4.211,-0l-0,-2.105c2.878,-0.181 5.715,-0.78 8.42,-1.779l0,8.094l-21.051,0l-0,-8.136Zm13.683,-9.758l1.053,1.053l-0,2.105l6.315,-0l0,5.484c-3.227,1.205 -6.639,1.842 -10.083,1.884l-0.758,-0c-3.491,-0.038 -6.948,-0.693 -10.21,-1.937l-0,-5.431l6.315,-0l0,-2.105l1.053,-1.053l6.315,0Zm-1.052,2.105l-4.211,0l0,1.053l4.211,-0l-0,-1.053Z"/></svg>