<?xml version="1.0" encoding="UTF-8" standalone="no"?>
<!DOCTYPE svg PUBLIC "-//W3C//DTD SVG 1.1//EN" "http://www.w3.org/Graphics/SVG/1.1/DTD/svg11.dtd">
<svg width="100%" height="100%" viewBox="0 0 50 100" version="1.1" xmlns="http://www.w3.org/2000/svg" xmlns:xlink="http://www.w3.org/1999/xlink" xml:space="preserve" xmlns:serif="http://www.serif.com/" style="fill-rule:evenodd;clip-rule:evenodd;stroke-linejoin:round;stroke-miterlimit:2;">
    <g transform="matrix(1,0,0,1,186.66,-4957.34)">
        <g transform="matrix(0.204041,-0.204041,0.204041,0.204041,-654.517,3077.92)">
            <path d="M-3567.68,6105.68L-3595.42,6105.68L-3606.68,6094.42L-3567.68,6094.42L-3567.68,6058.72L-3397.33,5888.37L-3361.63,5888.37L-3361.63,5849.37L-3350.37,5860.63L-3350.37,5888.37L-3361.63,5899.63L-3392.67,5899.63L-3556.42,6063.38L-3556.42,6094.42L-3567.68,6105.68ZM-3690.2,5983.15L-3678.94,5971.9L-3647.91,5971.9L-3484.15,5808.14L-3484.15,5777.11L-3472.89,5765.85L-3445.15,5765.85L-3433.89,5777.11L-3472.89,5777.11L-3472.89,5812.81L-3643.24,5983.15L-3678.94,5983.15L-3678.94,6022.15L-3690.2,6010.9L-3690.2,5983.15ZM-3666.29,6034.81L-3581.12,5949.63L-3545.42,5949.63L-3545.42,5910.63L-3506.42,5910.63L-3506.42,5874.93L-3421.24,5789.76L-3413.28,5797.72L-3495.16,5879.59L-3495.16,5910.63L-3464.12,5910.63L-3382.24,5828.76L-3374.28,5836.72L-3459.45,5921.89L-3495.16,5921.89L-3495.16,5960.89L-3534.16,5960.89L-3534.16,5996.59L-3619.33,6081.77L-3627.29,6073.81L-3545.42,5991.93L-3545.42,5960.89L-3576.45,5960.89L-3658.33,6042.77L-3666.29,6034.81ZM-3506.42,5949.63L-3506.42,5921.89L-3534.16,5921.89L-3534.16,5949.63L-3506.42,5949.63Z" style="fill:rgb(16,124,215);"/>
        </g>
    </g>
</svg>
