<?xml version="1.0" encoding="UTF-8" standalone="no"?>
<!DOCTYPE svg PUBLIC "-//W3C//DTD SVG 1.1//EN" "http://www.w3.org/Graphics/SVG/1.1/DTD/svg11.dtd">
<svg width="100%" height="100%" viewBox="0 0 146 146" version="1.1" xmlns="http://www.w3.org/2000/svg" xmlns:xlink="http://www.w3.org/1999/xlink" xml:space="preserve" xmlns:serif="http://www.serif.com/" style="fill-rule:evenodd;clip-rule:evenodd;stroke-linejoin:round;stroke-miterlimit:2;">
    <g transform="matrix(1,0,0,1,-638.717,-2304.36)">
        <g transform="matrix(0.181604,0,0,0.181604,638.717,2304.36)">
            <path d="M400,0C620.938,0 800,179.063 800,400C800,620.938 620.938,800 400,800C179.062,800 0,620.938 0,400C0,179.063 179.062,0 400,0ZM485.239,498.668C502.535,518.127 527.755,530.387 555.837,530.387C607.986,530.387 650.262,488.111 650.262,435.962L650.262,400C650.262,261.784 538.217,149.738 400,149.738C261.784,149.738 149.738,261.784 149.738,400C149.738,538.217 261.784,650.262 400,650.262L495.9,650.262C514.934,650.262 530.387,634.809 530.387,615.775C530.387,596.741 514.934,581.287 495.9,581.287L400,581.287C299.878,581.287 218.713,500.123 218.713,400C218.713,299.878 299.878,218.713 400,218.713C500.123,218.713 581.287,299.878 581.287,400L581.287,435.962C581.287,450.018 569.893,461.413 555.837,461.413C541.782,461.413 530.387,450.018 530.387,435.962L530.387,400C530.387,327.989 472.009,269.613 400,269.613C327.989,269.613 269.613,327.989 269.613,400C269.613,472.009 327.989,530.387 400,530.387C432.587,530.387 462.382,518.432 485.239,498.668ZM461.413,400C461.413,433.917 433.917,461.413 400,461.413C366.083,461.413 338.587,433.917 338.587,400C338.587,366.083 366.083,338.587 400,338.587C433.917,338.587 461.413,366.083 461.413,400Z" style="fill:white;"/>
        </g>
    </g>
</svg>
