<?xml version="1.0" encoding="UTF-8" standalone="no"?>
<!DOCTYPE svg PUBLIC "-//W3C//DTD SVG 1.1//EN" "http://www.w3.org/Graphics/SVG/1.1/DTD/svg11.dtd">
<svg width="100%" height="100%" viewBox="0 0 175 194" version="1.1" xmlns="http://www.w3.org/2000/svg" xmlns:xlink="http://www.w3.org/1999/xlink" xml:space="preserve" xmlns:serif="http://www.serif.com/" style="fill-rule:evenodd;clip-rule:evenodd;stroke-linejoin:round;stroke-miterlimit:2;">
    <g transform="matrix(1,0,0,1,3816,-3561.21)">
        <g id="html" transform="matrix(9.6754,0,0,9.6754,-3864.38,-68801.1)">
            <path d="M19.435,7485L10.812,7485L11.018,7487L19.23,7487C19.11,7488.75 18.746,7492.46 18.612,7494.15L13.999,7495.45L13.999,7495.45L13.989,7495.46L9.374,7493.84L9.058,7490L11.32,7490L11.48,7492.06L13.993,7493L13.999,7493L16.509,7492.1L16.767,7489L8.957,7489C8.919,7488.6 8.433,7483.39 8.349,7483L19.637,7483C19.574,7483.66 19.51,7484.34 19.435,7485ZM5,7479L6.638,7497.15L13.989,7499L21.36,7497.11L23,7479L5,7479Z"/>
        </g>
    </g>
</svg>
