<?xml version="1.0" encoding="UTF-8" standalone="no"?>
<!DOCTYPE svg PUBLIC "-//W3C//DTD SVG 1.1//EN" "http://www.w3.org/Graphics/SVG/1.1/DTD/svg11.dtd">
<svg width="100%" height="100%" viewBox="0 0 146 146" version="1.1" xmlns="http://www.w3.org/2000/svg" xmlns:xlink="http://www.w3.org/1999/xlink" xml:space="preserve" xmlns:serif="http://www.serif.com/" style="fill-rule:evenodd;clip-rule:evenodd;stroke-linejoin:round;stroke-miterlimit:2;">
    <g transform="matrix(1,0,0,1,-467.035,-2298)">
        <g transform="matrix(0.181604,0,0,0.181604,467.035,2298)">
            <path d="M400,0C620.938,0 800,179.063 800,400C800,620.938 620.938,800 400,800C179.063,800 0,620.938 0,400C0,179.063 179.063,0 400,0ZM488.041,459.571L476.764,470.781C476.764,470.781 449.962,497.432 376.805,424.688C303.648,351.947 330.449,325.298 330.449,325.298L337.55,318.237C355.043,300.844 356.692,272.92 341.429,252.534L310.212,210.833C291.323,185.602 254.823,182.269 233.172,203.796L194.314,242.434C183.578,253.108 176.384,266.945 177.257,282.295C179.489,321.565 197.256,406.059 296.4,504.639C401.537,609.179 500.187,613.333 540.529,609.572C553.289,608.384 564.385,601.885 573.327,592.992L608.497,558.025C632.237,534.419 625.542,493.951 595.168,477.441L547.869,451.728C527.925,440.887 503.628,444.071 488.041,459.571Z" style="fill:white;"/>
        </g>
    </g>
</svg>
