<?xml version="1.0" encoding="UTF-8" standalone="no"?>
<!DOCTYPE svg PUBLIC "-//W3C//DTD SVG 1.1//EN" "http://www.w3.org/Graphics/SVG/1.1/DTD/svg11.dtd">
<svg width="100%" height="100%" viewBox="0 0 108 108" version="1.1" xmlns="http://www.w3.org/2000/svg" xmlns:xlink="http://www.w3.org/1999/xlink" xml:space="preserve" xmlns:serif="http://www.serif.com/" style="fill-rule:evenodd;clip-rule:evenodd;stroke-linejoin:round;stroke-miterlimit:2;">
    <g transform="matrix(1,0,0,1,-2130.68,161)">
        <g transform="matrix(0.135,0,0,0.135,2130.68,-161)">
            <path d="M400,0C620.938,0 800,179.062 800,400C800,620.938 620.938,800 400,800C179.063,800 0,620.938 0,400C0,179.062 179.063,0 400,0ZM537.662,285.281L537.662,193.507L262.338,193.507L262.338,285.281L537.662,285.281ZM537.662,606.493L537.662,514.719L629.437,514.719L629.437,377.056C629.437,357.554 622.841,341.207 609.648,328.014C596.455,314.822 580.108,308.225 560.606,308.225L239.394,308.225C220.274,308.225 204.023,314.822 190.639,328.014C177.255,341.207 170.563,357.554 170.563,377.056L170.563,514.719L262.338,514.719L262.338,606.493L537.662,606.493ZM491.775,560.606L308.225,560.606L308.225,468.831L491.775,468.831L491.775,560.606ZM537.662,411.472C531.161,411.472 525.712,409.273 521.315,404.876C516.917,400.478 514.719,395.029 514.719,388.528C514.719,382.027 516.917,376.578 521.315,372.181C525.712,367.783 531.161,365.584 537.662,365.584C544.163,365.584 549.612,367.783 554.01,372.181C558.407,376.578 560.606,382.027 560.606,388.528C560.606,395.029 558.407,400.478 554.01,404.876C549.612,409.273 544.163,411.472 537.662,411.472Z" style="fill:rgb(86,17,57);"/>
        </g>
    </g>
</svg>
