<?xml version="1.0" encoding="UTF-8" standalone="no"?>
<!DOCTYPE svg PUBLIC "-//W3C//DTD SVG 1.1//EN" "http://www.w3.org/Graphics/SVG/1.1/DTD/svg11.dtd">
<svg width="100%" height="100%" viewBox="0 0 175 172" version="1.1" xmlns="http://www.w3.org/2000/svg" xmlns:xlink="http://www.w3.org/1999/xlink" xml:space="preserve" xmlns:serif="http://www.serif.com/" style="fill-rule:evenodd;clip-rule:evenodd;stroke-linejoin:round;stroke-miterlimit:2;">
    <g transform="matrix(1,0,0,1,3816,-4212.84)">
        <g id="rxjs" transform="matrix(0.686718,0,0,0.686718,-3826.29,4201.36)">
            <path d="M29.419,175.125C29.28,174.998 29.14,174.9 29,174.9C25.2,170.8 21.6,166.5 18.7,161.7C17.2,159 15.6,156.1 15.1,153C14.6,149.9 15.8,146.9 17.6,144.4C18.9,142.5 20.5,141 21.3,138.7C22.1,136.6 22.3,134.4 22.2,132.2C21.7,121.5 12.1,110.5 18.1,99.9C20.1,96.5 22.8,93.3 26,90.9C33.6,85 37,82 37.5,71.4C37.7,67.8 37.6,64.1 38,60.5C38.4,55.9 39.9,51.9 43.6,48.9C47,46.2 51.3,44.7 55.5,44C59.6,43.3 63.6,43.6 67.6,42.1C72.2,40.4 76.2,37.4 79.5,33.8C82.4,30.6 85,27.1 88.1,23.9C98.4,13.2 115.4,15.7 126.8,23.3C128.9,24.7 132.2,27.9 132.2,27.9C127.579,28.015 123.254,28.417 119.279,28.994C140.651,25.94 172.188,27.937 205.5,52.6C205.5,52.6 212.802,57.744 220.538,65.489C229.399,74.34 238.868,86.62 238.6,98.5C238.6,98.5 241.6,124.3 188.9,115.5C188.9,115.5 163.9,111 134.4,96.7C134.4,96.7 98.7,103.5 86.9,135.2C75.1,166.9 91.4,194.7 91.4,194.7C91.4,194.7 102.5,216.4 126.7,226.4C126.7,226.4 107.4,209.2 107.9,190.7L108,190.8C108.7,191.8 112.3,195.6 112.3,195.6C116.3,199.9 120.6,203.9 125.1,207.6C149,227.5 178.1,237.8 209.1,230.5C209.1,230.5 185.4,232 169.6,214.3C169.6,214.3 207.2,216.1 241.9,178.6C241.9,178.6 224.1,194.9 199.9,190.4C199.9,190.4 221.6,178.9 236.9,146.7C236.9,146.7 255.1,111.1 241.4,81.9C241.4,81.9 274.9,112.9 241.2,164.2C241.2,164.2 253.7,156 267.4,126.2C267.4,126.2 274.7,157.1 253.2,186.4C253.2,186.4 243.4,203.7 220.4,213.7C220.4,213.7 234.1,216 265.8,191.2C265.8,191.2 257.9,222.4 218.6,249.4C218.6,249.4 175.9,280.6 113.4,259.4C113.4,259.4 71.2,246 45.2,207.2C40.279,199.834 36.14,192.198 32.879,184.332C32.977,184.74 33.064,185.092 33.1,185.2C33.1,185.2 31.924,182.765 29.419,175.125ZM177,73.25C176.973,70.273 174.583,67.9 171.6,67.9C168.617,67.9 166.227,70.273 166.2,73.25C166.227,76.227 168.617,78.6 171.6,78.6C174.583,78.6 176.973,76.227 177,73.25Z"/>
        </g>
    </g>
</svg>
