<?xml version="1.0" encoding="UTF-8" standalone="no"?>
<!DOCTYPE svg PUBLIC "-//W3C//DTD SVG 1.1//EN" "http://www.w3.org/Graphics/SVG/1.1/DTD/svg11.dtd">
<svg width="100%" height="100%" viewBox="0 0 175 208" version="1.1" xmlns="http://www.w3.org/2000/svg" xmlns:xlink="http://www.w3.org/1999/xlink" xml:space="preserve" xmlns:serif="http://www.serif.com/" style="fill-rule:evenodd;clip-rule:evenodd;stroke-linejoin:round;stroke-miterlimit:2;">
    <g transform="matrix(1,0,0,1,3816,-3303.32)">
        <g id="scss" transform="matrix(7.40371,0,0,7.40371,-3847.38,3288.54)">
            <path d="M16.171,18.7C15.69,18.921 15.163,19.209 14.108,19.788C13.708,20.013 13.29,20.238 12.901,20.45C12.874,20.423 12.846,20.389 12.819,20.361C10.732,18.131 6.872,16.556 7.036,13.561C7.097,12.47 7.472,9.606 14.449,6.128C20.191,3.298 24.76,4.082 25.549,5.821C26.683,8.3 23.1,12.913 17.17,13.582C15.841,13.851 14.46,13.502 13.419,12.634C13.105,12.293 13.058,12.273 12.942,12.341C12.751,12.441 12.874,12.75 12.942,12.927C13.399,13.754 14.172,14.362 15.083,14.611C17.416,15.115 19.85,14.874 22.039,13.922C25.633,12.531 28.439,8.664 27.617,5.422C26.792,2.135 21.336,1.051 16.174,2.885C12.941,3.974 9.954,5.689 7.384,7.932C4.54,10.592 4.09,12.904 4.274,13.872C4.936,17.309 9.674,19.546 11.574,21.203C11.474,21.258 11.39,21.303 11.315,21.346C10.367,21.817 6.753,23.706 5.852,25.704C4.829,27.968 6.016,29.591 6.8,29.809C9.216,30.388 11.749,29.362 13.081,27.265C14.203,25.541 14.412,23.372 13.64,21.465C13.865,21.286 14.104,21.126 14.356,20.988C14.84,20.702 15.301,20.42 15.71,20.202C17.11,19.546 18.639,19.208 20.185,19.213C23.431,19.595 24.072,21.62 23.949,22.473C23.833,23.085 23.457,23.617 22.919,23.932C22.694,24.075 22.619,24.123 22.639,24.225C22.666,24.375 22.775,24.368 22.966,24.341C23.962,24.026 24.666,23.127 24.732,22.084C24.832,20.084 22.925,17.89 19.549,17.91C18.538,17.912 17.537,18.111 16.603,18.497C16.453,18.559 16.307,18.626 16.166,18.697L16.171,18.7ZM11.346,26.539C10.268,27.712 8.768,28.155 8.12,27.78C7.42,27.38 7.697,25.645 9.02,24.404C9.804,23.698 10.65,23.066 11.55,22.515C11.707,22.415 11.939,22.283 12.218,22.115C12.266,22.088 12.293,22.074 12.293,22.074L12.457,21.974C12.937,23.583 12.511,25.331 11.346,26.539Z" style="fill-rule:nonzero;"/>
        </g>
    </g>
</svg>
