<?xml version="1.0" encoding="UTF-8" standalone="no"?>
<!DOCTYPE svg PUBLIC "-//W3C//DTD SVG 1.1//EN" "http://www.w3.org/Graphics/SVG/1.1/DTD/svg11.dtd">
<svg width="100%" height="100%" viewBox="0 0 175 145" version="1.1" xmlns="http://www.w3.org/2000/svg" xmlns:xlink="http://www.w3.org/1999/xlink" xml:space="preserve" xmlns:serif="http://www.serif.com/" style="fill-rule:evenodd;clip-rule:evenodd;stroke-linejoin:round;stroke-miterlimit:2;">
    <g transform="matrix(1,0,0,1,3286,-3320.62)">
        <g id="ux" transform="matrix(0.137413,0,0,0.137413,-3339.77,3252.02)">
            <path d="M1658.7,723.4C1658.7,734.427 1649.63,743.5 1638.6,743.5L411.4,743.5C400.373,743.5 391.3,734.427 391.3,723.4L391.3,670.4C391.3,576.482 468.582,499.2 562.5,499.2L1487.5,499.2C1581.42,499.2 1658.7,576.482 1658.7,670.4L1658.7,723.4ZM559.2,585.4C537.841,585.4 520.5,602.741 520.5,624.1C520.5,645.459 537.841,662.8 559.2,662.8C580.559,662.8 597.9,645.459 597.9,624.1C597.9,602.741 580.559,585.4 559.2,585.4ZM678.5,585.4C657.141,585.4 639.8,602.741 639.8,624.1C639.8,645.459 657.141,662.8 678.5,662.8C699.859,662.8 717.2,645.459 717.2,624.1C717.2,602.741 699.859,585.4 678.5,585.4ZM797.8,585.4C776.441,585.4 759.1,602.741 759.1,624.1C759.1,645.459 776.441,662.8 797.8,662.8C819.159,662.8 836.5,645.459 836.5,624.1C836.5,602.741 819.159,585.4 797.8,585.4ZM391.3,853.6C391.3,842.573 400.373,833.5 411.4,833.5L1638.6,833.5C1649.63,833.5 1658.7,842.573 1658.7,853.6L1658.7,1379.6C1658.7,1473.52 1581.42,1550.8 1487.5,1550.8L562.5,1550.8C468.582,1550.8 391.3,1473.52 391.3,1379.6L391.3,853.6Z"/>
        </g>
    </g>
</svg>
