<?xml version="1.0" encoding="UTF-8" standalone="no"?>
<!DOCTYPE svg PUBLIC "-//W3C//DTD SVG 1.1//EN" "http://www.w3.org/Graphics/SVG/1.1/DTD/svg11.dtd">
<svg width="100%" height="100%" viewBox="0 0 175 148" version="1.1" xmlns="http://www.w3.org/2000/svg" xmlns:xlink="http://www.w3.org/1999/xlink" xml:space="preserve" xmlns:serif="http://www.serif.com/" style="fill-rule:evenodd;clip-rule:evenodd;stroke-linejoin:round;stroke-miterlimit:2;">
    <g transform="matrix(1,0,0,1,3286,-3520.47)">
        <g id="affinity" transform="matrix(7.25655,0,0,7.25655,-3286,3512.64)">
            <path d="M9.368,1.08L13.146,1.08L13.464,1.63L14.546,1.63L24,18.004L24,18.005L21.964,21.475L3.057,21.474L2.531,20.551L1.879,20.551L0,17.298L0.002,17.297L2.412,13.121L4.642,11.833L8.332,5.443L7.59,4.158L9.368,1.08ZM11.592,6.732L5.066,18.008L11.316,18.008L10.593,16.762L17.401,16.768L11.592,6.732Z" style="fill-rule:nonzero;"/>
        </g>
    </g>
</svg>
