<?xml version="1.0" encoding="UTF-8" standalone="no"?>
<!DOCTYPE svg PUBLIC "-//W3C//DTD SVG 1.1//EN" "http://www.w3.org/Graphics/SVG/1.1/DTD/svg11.dtd">
<svg width="100%" height="100%" viewBox="0 0 175 192" version="1.1" xmlns="http://www.w3.org/2000/svg" xmlns:xlink="http://www.w3.org/1999/xlink" xml:space="preserve" xmlns:serif="http://www.serif.com/" style="fill-rule:evenodd;clip-rule:evenodd;stroke-linejoin:round;stroke-miterlimit:2;">
    <g transform="matrix(1,0,0,1,3816,-3805.51)">
        <g id="angular" transform="matrix(4.35177,0,0,4.35177,-3833.41,3796.37)">
            <path d="M43.6,9C43.8,9.1 44.1,9.1 44,9.4C43.8,11.5 41.4,33.4 41.1,36C41.025,36.206 40.884,36.382 40.7,36.5L24.3,45.9C24.1,46.1 23.9,46 23.6,45.9L7.3,36.5C7.063,36.457 6.888,36.249 6.888,36.008C6.888,35.972 6.892,35.935 6.9,35.9C6.6,32.7 4,9.9 4,9.6C4,9.3 4,9.1 4.3,9L23.7,2.1L24.3,2.1L43.6,9ZM36.3,34.2L36.7,34.1L24,5.8C19.7,15.3 15.5,24.7 11.2,34.2L15.5,34.2C15.9,34.2 16,34.1 16.2,33.7L18.3,28C18.4,27.7 18.5,27.6 18.8,27.6L29.1,27.6C29.135,27.592 29.172,27.588 29.208,27.588C29.449,27.588 29.657,27.763 29.7,28L31.8,33.8C31.843,34.037 32.051,34.212 32.292,34.212C32.328,34.212 32.365,34.208 32.4,34.2L36.3,34.2ZM27.8,23.8L20.2,23.8C21.4,20.8 22.7,17.8 24,14.8L27.8,23.8Z"/>
        </g>
    </g>
</svg>
