<?xml version="1.0" encoding="UTF-8" standalone="no"?><!DOCTYPE svg PUBLIC "-//W3C//DTD SVG 1.1//EN" "http://www.w3.org/Graphics/SVG/1.1/DTD/svg11.dtd"><svg width="100%" height="100%" viewBox="0 0 22 21" version="1.1" xmlns="http://www.w3.org/2000/svg" xmlns:xlink="http://www.w3.org/1999/xlink" xml:space="preserve" xmlns:serif="http://www.serif.com/" style="fill-rule:evenodd;clip-rule:evenodd;stroke-linejoin:round;stroke-miterlimit:2;"><path id="linkedin" d="M4.909,20.29l-0,-13.577l-4.513,-0l0,13.577l4.513,-0l-0,-0Zm-2.256,-15.43c1.573,-0 2.553,-1.044 2.553,-2.347c-0.03,-1.332 -0.98,-2.346 -2.524,-2.346c-1.543,0 -2.552,1.014 -2.552,2.346c-0,1.303 0.979,2.347 2.493,2.347l0.03,-0l-0,-0Zm4.753,15.43c0,-0 0.059,-12.304 0,-13.577l4.513,-0l0,1.969l-0.03,-0c0.593,-0.927 1.663,-2.288 4.097,-2.288c2.969,-0 5.195,1.94 5.195,6.111l0,7.785l-4.512,-0l0,-7.264c0,-1.825 -0.653,-3.07 -2.286,-3.07c-1.247,-0 -1.989,0.84 -2.316,1.651c-0.119,0.289 -0.148,0.695 -0.148,1.101l0,7.582l-4.513,-0Z"/></svg>