<?xml version="1.0" encoding="UTF-8" standalone="no"?><!DOCTYPE svg PUBLIC "-//W3C//DTD SVG 1.1//EN" "http://www.w3.org/Graphics/SVG/1.1/DTD/svg11.dtd"><svg width="100%" height="100%" viewBox="0 0 19 25" version="1.1" xmlns="http://www.w3.org/2000/svg" xmlns:xlink="http://www.w3.org/1999/xlink" xml:space="preserve" xmlns:serif="http://www.serif.com/" style="fill-rule:evenodd;clip-rule:evenodd;stroke-linejoin:round;stroke-miterlimit:2;"><path id="person_outline" d="M0.104,24.073l-0,-4.187c-0,-3.872 2.302,-7.117 5.652,-8.582c-1.466,-1.151 -2.512,-2.931 -2.512,-5.024c-0,-3.454 2.826,-6.28 6.28,-6.28c3.453,0 6.279,2.826 6.279,6.28c0,1.989 -0.942,3.873 -2.512,5.024c3.35,1.465 5.652,4.814 5.652,8.582l0,4.187l-18.839,0Zm16.746,-2.437l0,-1.75c0,-4.082 -3.245,-7.326 -7.326,-7.326c-4.082,-0 -7.327,3.244 -7.327,7.326l-0,1.75l14.653,-0Zm-7.326,-19.543c-2.303,0 -4.187,1.884 -4.187,4.187c-0,2.303 1.884,4.187 4.187,4.187c2.302,-0 4.186,-1.884 4.186,-4.187c0,-2.303 -1.884,-4.187 -4.186,-4.187Z"/></svg>